<?xml version="1.0" encoding="utf-8" standalone="no"?>
<!DOCTYPE svg PUBLIC "-//W3C//DTD SVG 1.1//EN"
  "http://www.w3.org/Graphics/SVG/1.1/DTD/svg11.dtd">
<svg xmlns:xlink="http://www.w3.org/1999/xlink" width="576pt" height="288pt" viewBox="0 0 576 288" xmlns="http://www.w3.org/2000/svg" version="1.1">
 <metadata>
  <rdf:RDF xmlns:dc="http://purl.org/dc/elements/1.1/" xmlns:cc="http://creativecommons.org/ns#" xmlns:rdf="http://www.w3.org/1999/02/22-rdf-syntax-ns#">
   <cc:Work>
    <dc:type rdf:resource="http://purl.org/dc/dcmitype/StillImage"/>
    <dc:date>2024-01-29T11:36:59.418377</dc:date>
    <dc:format>image/svg+xml</dc:format>
    <dc:creator>
     <cc:Agent>
      <dc:title>Matplotlib v3.8.2, https://matplotlib.org/</dc:title>
     </cc:Agent>
    </dc:creator>
   </cc:Work>
  </rdf:RDF>
 </metadata>
 <defs>
  <style type="text/css">*{stroke-linejoin: round; stroke-linecap: butt}</style>
 </defs>
 <g id="figure_1">
  <g id="patch_1">
   <path d="M 0 288 
L 576 288 
L 576 0 
L 0 0 
z
" style="fill: #ffffff"/>
  </g>
  <g id="axes_1">
   <g id="patch_2">
    <path d="M 63.605 191.068978 
L 512.395 191.068978 
L 512.395 15.824889 
L 63.605 15.824889 
z
" style="fill: #ffffff"/>
   </g>
   <g id="patch_3">
    <path d="M 91.222846 125.082006 
L 98.127308 125.082006 
L 98.127308 120.770677 
L 91.222846 120.770677 
z
" clip-path="url(#pbf75eaed49)" style="fill: #ff9912"/>
   </g>
   <g id="patch_4">
    <path d="M 125.745154 125.082006 
L 132.649615 125.082006 
L 132.649615 120.207624 
L 125.745154 120.207624 
z
" clip-path="url(#pbf75eaed49)" style="fill: #ff9912"/>
   </g>
   <g id="patch_5">
    <path d="M 160.267462 125.082006 
L 167.171923 125.082006 
L 167.171923 119.642408 
L 160.267462 119.642408 
z
" clip-path="url(#pbf75eaed49)" style="fill: #ff9912"/>
   </g>
   <g id="patch_6">
    <path d="M 194.789769 125.082006 
L 201.694231 125.082006 
L 201.694231 119.574798 
L 194.789769 119.574798 
z
" clip-path="url(#pbf75eaed49)" style="fill: #ff9912"/>
   </g>
   <g id="patch_7">
    <path d="M 229.312077 125.082006 
L 236.216538 125.082006 
L 236.216538 119.507189 
L 229.312077 119.507189 
z
" clip-path="url(#pbf75eaed49)" style="fill: #ff9912"/>
   </g>
   <g id="patch_8">
    <path d="M 263.834385 125.082006 
L 270.738846 125.082006 
L 270.738846 119.632672 
L 263.834385 119.632672 
z
" clip-path="url(#pbf75eaed49)" style="fill: #ff9912"/>
   </g>
   <g id="patch_9">
    <path d="M 298.356692 125.082006 
L 305.261154 125.082006 
L 305.261154 119.758156 
L 298.356692 119.758156 
z
" clip-path="url(#pbf75eaed49)" style="fill: #ff9912"/>
   </g>
   <g id="patch_10">
    <path d="M 332.879 125.082006 
L 339.783462 125.082006 
L 339.783462 119.850645 
L 332.879 119.850645 
z
" clip-path="url(#pbf75eaed49)" style="fill: #ff9912"/>
   </g>
   <g id="patch_11">
    <path d="M 367.401308 125.082006 
L 374.305769 125.082006 
L 374.305769 119.942595 
L 367.401308 119.942595 
z
" clip-path="url(#pbf75eaed49)" style="fill: #ff9912"/>
   </g>
   <g id="patch_12">
    <path d="M 401.923615 125.082006 
L 408.828077 125.082006 
L 408.828077 120.604087 
L 401.923615 120.604087 
z
" clip-path="url(#pbf75eaed49)" style="fill: #ff9912"/>
   </g>
   <g id="patch_13">
    <path d="M 436.445923 125.082006 
L 443.350385 125.082006 
L 443.350385 121.265038 
L 436.445923 121.265038 
z
" clip-path="url(#pbf75eaed49)" style="fill: #ff9912"/>
   </g>
   <g id="patch_14">
    <path d="M 470.968231 125.082006 
L 477.872692 125.082006 
L 477.872692 122.00658 
L 470.968231 122.00658 
z
" clip-path="url(#pbf75eaed49)" style="fill: #ff9912"/>
   </g>
   <g id="patch_15">
    <path d="M 91.222846 120.770677 
L 98.127308 120.770677 
L 98.127308 70.994324 
L 91.222846 70.994324 
z
" clip-path="url(#pbf75eaed49)" style="fill: #ff0000"/>
   </g>
   <g id="patch_16">
    <path d="M 125.745154 120.207624 
L 132.649615 120.207624 
L 132.649615 120.207624 
L 125.745154 120.207624 
z
" clip-path="url(#pbf75eaed49)" style="fill: #ff0000"/>
   </g>
   <g id="patch_17">
    <path d="M 160.267462 119.642408 
L 167.171923 119.642408 
L 167.171923 70.994324 
L 160.267462 70.994324 
z
" clip-path="url(#pbf75eaed49)" style="fill: #ff0000"/>
   </g>
   <g id="patch_18">
    <path d="M 194.789769 119.574798 
L 201.694231 119.574798 
L 201.694231 119.574798 
L 194.789769 119.574798 
z
" clip-path="url(#pbf75eaed49)" style="fill: #ff0000"/>
   </g>
   <g id="patch_19">
    <path d="M 229.312077 119.507189 
L 236.216538 119.507189 
L 236.216538 70.994324 
L 229.312077 70.994324 
z
" clip-path="url(#pbf75eaed49)" style="fill: #ff0000"/>
   </g>
   <g id="patch_20">
    <path d="M 263.834385 119.632672 
L 270.738846 119.632672 
L 270.738846 119.632672 
L 263.834385 119.632672 
z
" clip-path="url(#pbf75eaed49)" style="fill: #ff0000"/>
   </g>
   <g id="patch_21">
    <path d="M 298.356692 119.758156 
L 305.261154 119.758156 
L 305.261154 119.758156 
L 298.356692 119.758156 
z
" clip-path="url(#pbf75eaed49)" style="fill: #ff0000"/>
   </g>
   <g id="patch_22">
    <path d="M 332.879 119.850645 
L 339.783462 119.850645 
L 339.783462 119.850645 
L 332.879 119.850645 
z
" clip-path="url(#pbf75eaed49)" style="fill: #ff0000"/>
   </g>
   <g id="patch_23">
    <path d="M 367.401308 119.942595 
L 374.305769 119.942595 
L 374.305769 119.942595 
L 367.401308 119.942595 
z
" clip-path="url(#pbf75eaed49)" style="fill: #ff0000"/>
   </g>
   <g id="patch_24">
    <path d="M 401.923615 120.604087 
L 408.828077 120.604087 
L 408.828077 70.994324 
L 401.923615 70.994324 
z
" clip-path="url(#pbf75eaed49)" style="fill: #ff0000"/>
   </g>
   <g id="patch_25">
    <path d="M 436.445923 121.265038 
L 443.350385 121.265038 
L 443.350385 121.265038 
L 436.445923 121.265038 
z
" clip-path="url(#pbf75eaed49)" style="fill: #ff0000"/>
   </g>
   <g id="patch_26">
    <path d="M 470.968231 122.00658 
L 477.872692 122.00658 
L 477.872692 122.00658 
L 470.968231 122.00658 
z
" clip-path="url(#pbf75eaed49)" style="fill: #ff0000"/>
   </g>
   <g id="patch_27">
    <path d="M 91.222846 75.305653 
L 98.127308 75.305653 
L 98.127308 75.305653 
L 91.222846 75.305653 
z
" clip-path="url(#pbf75eaed49)" style="fill: #ff0000"/>
   </g>
   <g id="patch_28">
    <path d="M 125.745154 125.082006 
L 132.649615 125.082006 
L 132.649615 129.956388 
L 125.745154 129.956388 
z
" clip-path="url(#pbf75eaed49)" style="fill: #ff0000"/>
   </g>
   <g id="patch_29">
    <path d="M 160.267462 76.433922 
L 167.171923 76.433922 
L 167.171923 76.433922 
L 160.267462 76.433922 
z
" clip-path="url(#pbf75eaed49)" style="fill: #ff0000"/>
   </g>
   <g id="patch_30">
    <path d="M 194.789769 125.082006 
L 201.694231 125.082006 
L 201.694231 130.589214 
L 194.789769 130.589214 
z
" clip-path="url(#pbf75eaed49)" style="fill: #ff0000"/>
   </g>
   <g id="patch_31">
    <path d="M 229.312077 76.569142 
L 236.216538 76.569142 
L 236.216538 76.569142 
L 229.312077 76.569142 
z
" clip-path="url(#pbf75eaed49)" style="fill: #ff0000"/>
   </g>
   <g id="patch_32">
    <path d="M 263.834385 125.082006 
L 270.738846 125.082006 
L 270.738846 130.53134 
L 263.834385 130.53134 
z
" clip-path="url(#pbf75eaed49)" style="fill: #ff0000"/>
   </g>
   <g id="patch_33">
    <path d="M 298.356692 125.082006 
L 305.261154 125.082006 
L 305.261154 130.405857 
L 298.356692 130.405857 
z
" clip-path="url(#pbf75eaed49)" style="fill: #ff0000"/>
   </g>
   <g id="patch_34">
    <path d="M 332.879 125.082006 
L 339.783462 125.082006 
L 339.783462 130.313367 
L 332.879 130.313367 
z
" clip-path="url(#pbf75eaed49)" style="fill: #ff0000"/>
   </g>
   <g id="patch_35">
    <path d="M 367.401308 125.082006 
L 374.305769 125.082006 
L 374.305769 130.221418 
L 367.401308 130.221418 
z
" clip-path="url(#pbf75eaed49)" style="fill: #ff0000"/>
   </g>
   <g id="patch_36">
    <path d="M 401.923615 75.472243 
L 408.828077 75.472243 
L 408.828077 75.472243 
L 401.923615 75.472243 
z
" clip-path="url(#pbf75eaed49)" style="fill: #ff0000"/>
   </g>
   <g id="patch_37">
    <path d="M 436.445923 125.082006 
L 443.350385 125.082006 
L 443.350385 128.898974 
L 436.445923 128.898974 
z
" clip-path="url(#pbf75eaed49)" style="fill: #ff0000"/>
   </g>
   <g id="patch_38">
    <path d="M 470.968231 125.082006 
L 477.872692 125.082006 
L 477.872692 128.157432 
L 470.968231 128.157432 
z
" clip-path="url(#pbf75eaed49)" style="fill: #ff0000"/>
   </g>
   <g id="matplotlib.axis_1">
    <g id="xtick_1">
     <g id="line2d_1">
      <path d="M 98.127308 191.068978 
L 98.127308 15.824889 
" clip-path="url(#pbf75eaed49)" style="fill: none; stroke: #b0b0b0; stroke-width: 0.8; stroke-linecap: square"/>
     </g>
     <g id="line2d_2">
      <defs>
       <path id="m32ec9d8bb7" d="M 0 0 
L 0 3.5 
" style="stroke: #000000; stroke-width: 0.8"/>
      </defs>
      <g>
       <use xlink:href="#m32ec9d8bb7" x="98.127308" y="191.068978" style="stroke: #000000; stroke-width: 0.8"/>
      </g>
     </g>
     <g id="text_1">
      <!-- 20 -->
      <g transform="translate(87.947308 210.226478) scale(0.16 -0.16)">
       <defs>
        <path id="DejaVuSans-32" d="M 1228 531 
L 3431 531 
L 3431 0 
L 469 0 
L 469 531 
Q 828 903 1448 1529 
Q 2069 2156 2228 2338 
Q 2531 2678 2651 2914 
Q 2772 3150 2772 3378 
Q 2772 3750 2511 3984 
Q 2250 4219 1831 4219 
Q 1534 4219 1204 4116 
Q 875 4013 500 3803 
L 500 4441 
Q 881 4594 1212 4672 
Q 1544 4750 1819 4750 
Q 2544 4750 2975 4387 
Q 3406 4025 3406 3419 
Q 3406 3131 3298 2873 
Q 3191 2616 2906 2266 
Q 2828 2175 2409 1742 
Q 1991 1309 1228 531 
z
" transform="scale(0.015625)"/>
        <path id="DejaVuSans-30" d="M 2034 4250 
Q 1547 4250 1301 3770 
Q 1056 3291 1056 2328 
Q 1056 1369 1301 889 
Q 1547 409 2034 409 
Q 2525 409 2770 889 
Q 3016 1369 3016 2328 
Q 3016 3291 2770 3770 
Q 2525 4250 2034 4250 
z
M 2034 4750 
Q 2819 4750 3233 4129 
Q 3647 3509 3647 2328 
Q 3647 1150 3233 529 
Q 2819 -91 2034 -91 
Q 1250 -91 836 529 
Q 422 1150 422 2328 
Q 422 3509 836 4129 
Q 1250 4750 2034 4750 
z
" transform="scale(0.015625)"/>
       </defs>
       <use xlink:href="#DejaVuSans-32"/>
       <use xlink:href="#DejaVuSans-30" x="63.623047"/>
      </g>
     </g>
    </g>
    <g id="xtick_2">
     <g id="line2d_3">
      <path d="M 132.649615 191.068978 
L 132.649615 15.824889 
" clip-path="url(#pbf75eaed49)" style="fill: none; stroke: #b0b0b0; stroke-width: 0.8; stroke-linecap: square"/>
     </g>
     <g id="line2d_4">
      <g>
       <use xlink:href="#m32ec9d8bb7" x="132.649615" y="191.068978" style="stroke: #000000; stroke-width: 0.8"/>
      </g>
     </g>
     <g id="text_2">
      <!-- 21 -->
      <g transform="translate(122.469615 210.226478) scale(0.16 -0.16)">
       <defs>
        <path id="DejaVuSans-31" d="M 794 531 
L 1825 531 
L 1825 4091 
L 703 3866 
L 703 4441 
L 1819 4666 
L 2450 4666 
L 2450 531 
L 3481 531 
L 3481 0 
L 794 0 
L 794 531 
z
" transform="scale(0.015625)"/>
       </defs>
       <use xlink:href="#DejaVuSans-32"/>
       <use xlink:href="#DejaVuSans-31" x="63.623047"/>
      </g>
     </g>
    </g>
    <g id="xtick_3">
     <g id="line2d_5">
      <path d="M 167.171923 191.068978 
L 167.171923 15.824889 
" clip-path="url(#pbf75eaed49)" style="fill: none; stroke: #b0b0b0; stroke-width: 0.8; stroke-linecap: square"/>
     </g>
     <g id="line2d_6">
      <g>
       <use xlink:href="#m32ec9d8bb7" x="167.171923" y="191.068978" style="stroke: #000000; stroke-width: 0.8"/>
      </g>
     </g>
     <g id="text_3">
      <!-- 22 -->
      <g transform="translate(156.991923 210.226478) scale(0.16 -0.16)">
       <use xlink:href="#DejaVuSans-32"/>
       <use xlink:href="#DejaVuSans-32" x="63.623047"/>
      </g>
     </g>
    </g>
    <g id="xtick_4">
     <g id="line2d_7">
      <path d="M 201.694231 191.068978 
L 201.694231 15.824889 
" clip-path="url(#pbf75eaed49)" style="fill: none; stroke: #b0b0b0; stroke-width: 0.8; stroke-linecap: square"/>
     </g>
     <g id="line2d_8">
      <g>
       <use xlink:href="#m32ec9d8bb7" x="201.694231" y="191.068978" style="stroke: #000000; stroke-width: 0.8"/>
      </g>
     </g>
     <g id="text_4">
      <!-- 23 -->
      <g transform="translate(191.514231 210.226478) scale(0.16 -0.16)">
       <defs>
        <path id="DejaVuSans-33" d="M 2597 2516 
Q 3050 2419 3304 2112 
Q 3559 1806 3559 1356 
Q 3559 666 3084 287 
Q 2609 -91 1734 -91 
Q 1441 -91 1130 -33 
Q 819 25 488 141 
L 488 750 
Q 750 597 1062 519 
Q 1375 441 1716 441 
Q 2309 441 2620 675 
Q 2931 909 2931 1356 
Q 2931 1769 2642 2001 
Q 2353 2234 1838 2234 
L 1294 2234 
L 1294 2753 
L 1863 2753 
Q 2328 2753 2575 2939 
Q 2822 3125 2822 3475 
Q 2822 3834 2567 4026 
Q 2313 4219 1838 4219 
Q 1578 4219 1281 4162 
Q 984 4106 628 3988 
L 628 4550 
Q 988 4650 1302 4700 
Q 1616 4750 1894 4750 
Q 2613 4750 3031 4423 
Q 3450 4097 3450 3541 
Q 3450 3153 3228 2886 
Q 3006 2619 2597 2516 
z
" transform="scale(0.015625)"/>
       </defs>
       <use xlink:href="#DejaVuSans-32"/>
       <use xlink:href="#DejaVuSans-33" x="63.623047"/>
      </g>
     </g>
    </g>
    <g id="xtick_5">
     <g id="line2d_9">
      <path d="M 236.216538 191.068978 
L 236.216538 15.824889 
" clip-path="url(#pbf75eaed49)" style="fill: none; stroke: #b0b0b0; stroke-width: 0.8; stroke-linecap: square"/>
     </g>
     <g id="line2d_10">
      <g>
       <use xlink:href="#m32ec9d8bb7" x="236.216538" y="191.068978" style="stroke: #000000; stroke-width: 0.8"/>
      </g>
     </g>
     <g id="text_5">
      <!-- 24 -->
      <g transform="translate(226.036538 210.226478) scale(0.16 -0.16)">
       <defs>
        <path id="DejaVuSans-34" d="M 2419 4116 
L 825 1625 
L 2419 1625 
L 2419 4116 
z
M 2253 4666 
L 3047 4666 
L 3047 1625 
L 3713 1625 
L 3713 1100 
L 3047 1100 
L 3047 0 
L 2419 0 
L 2419 1100 
L 313 1100 
L 313 1709 
L 2253 4666 
z
" transform="scale(0.015625)"/>
       </defs>
       <use xlink:href="#DejaVuSans-32"/>
       <use xlink:href="#DejaVuSans-34" x="63.623047"/>
      </g>
     </g>
    </g>
    <g id="xtick_6">
     <g id="line2d_11">
      <path d="M 270.738846 191.068978 
L 270.738846 15.824889 
" clip-path="url(#pbf75eaed49)" style="fill: none; stroke: #b0b0b0; stroke-width: 0.8; stroke-linecap: square"/>
     </g>
     <g id="line2d_12">
      <g>
       <use xlink:href="#m32ec9d8bb7" x="270.738846" y="191.068978" style="stroke: #000000; stroke-width: 0.8"/>
      </g>
     </g>
     <g id="text_6">
      <!-- 25 -->
      <g transform="translate(260.558846 210.226478) scale(0.16 -0.16)">
       <defs>
        <path id="DejaVuSans-35" d="M 691 4666 
L 3169 4666 
L 3169 4134 
L 1269 4134 
L 1269 2991 
Q 1406 3038 1543 3061 
Q 1681 3084 1819 3084 
Q 2600 3084 3056 2656 
Q 3513 2228 3513 1497 
Q 3513 744 3044 326 
Q 2575 -91 1722 -91 
Q 1428 -91 1123 -41 
Q 819 9 494 109 
L 494 744 
Q 775 591 1075 516 
Q 1375 441 1709 441 
Q 2250 441 2565 725 
Q 2881 1009 2881 1497 
Q 2881 1984 2565 2268 
Q 2250 2553 1709 2553 
Q 1456 2553 1204 2497 
Q 953 2441 691 2322 
L 691 4666 
z
" transform="scale(0.015625)"/>
       </defs>
       <use xlink:href="#DejaVuSans-32"/>
       <use xlink:href="#DejaVuSans-35" x="63.623047"/>
      </g>
     </g>
    </g>
    <g id="xtick_7">
     <g id="line2d_13">
      <path d="M 305.261154 191.068978 
L 305.261154 15.824889 
" clip-path="url(#pbf75eaed49)" style="fill: none; stroke: #b0b0b0; stroke-width: 0.8; stroke-linecap: square"/>
     </g>
     <g id="line2d_14">
      <g>
       <use xlink:href="#m32ec9d8bb7" x="305.261154" y="191.068978" style="stroke: #000000; stroke-width: 0.8"/>
      </g>
     </g>
     <g id="text_7">
      <!-- 26 -->
      <g transform="translate(295.081154 210.226478) scale(0.16 -0.16)">
       <defs>
        <path id="DejaVuSans-36" d="M 2113 2584 
Q 1688 2584 1439 2293 
Q 1191 2003 1191 1497 
Q 1191 994 1439 701 
Q 1688 409 2113 409 
Q 2538 409 2786 701 
Q 3034 994 3034 1497 
Q 3034 2003 2786 2293 
Q 2538 2584 2113 2584 
z
M 3366 4563 
L 3366 3988 
Q 3128 4100 2886 4159 
Q 2644 4219 2406 4219 
Q 1781 4219 1451 3797 
Q 1122 3375 1075 2522 
Q 1259 2794 1537 2939 
Q 1816 3084 2150 3084 
Q 2853 3084 3261 2657 
Q 3669 2231 3669 1497 
Q 3669 778 3244 343 
Q 2819 -91 2113 -91 
Q 1303 -91 875 529 
Q 447 1150 447 2328 
Q 447 3434 972 4092 
Q 1497 4750 2381 4750 
Q 2619 4750 2861 4703 
Q 3103 4656 3366 4563 
z
" transform="scale(0.015625)"/>
       </defs>
       <use xlink:href="#DejaVuSans-32"/>
       <use xlink:href="#DejaVuSans-36" x="63.623047"/>
      </g>
     </g>
    </g>
    <g id="xtick_8">
     <g id="line2d_15">
      <path d="M 339.783462 191.068978 
L 339.783462 15.824889 
" clip-path="url(#pbf75eaed49)" style="fill: none; stroke: #b0b0b0; stroke-width: 0.8; stroke-linecap: square"/>
     </g>
     <g id="line2d_16">
      <g>
       <use xlink:href="#m32ec9d8bb7" x="339.783462" y="191.068978" style="stroke: #000000; stroke-width: 0.8"/>
      </g>
     </g>
     <g id="text_8">
      <!-- 27 -->
      <g transform="translate(329.603462 210.226478) scale(0.16 -0.16)">
       <defs>
        <path id="DejaVuSans-37" d="M 525 4666 
L 3525 4666 
L 3525 4397 
L 1831 0 
L 1172 0 
L 2766 4134 
L 525 4134 
L 525 4666 
z
" transform="scale(0.015625)"/>
       </defs>
       <use xlink:href="#DejaVuSans-32"/>
       <use xlink:href="#DejaVuSans-37" x="63.623047"/>
      </g>
     </g>
    </g>
    <g id="xtick_9">
     <g id="line2d_17">
      <path d="M 374.305769 191.068978 
L 374.305769 15.824889 
" clip-path="url(#pbf75eaed49)" style="fill: none; stroke: #b0b0b0; stroke-width: 0.8; stroke-linecap: square"/>
     </g>
     <g id="line2d_18">
      <g>
       <use xlink:href="#m32ec9d8bb7" x="374.305769" y="191.068978" style="stroke: #000000; stroke-width: 0.8"/>
      </g>
     </g>
     <g id="text_9">
      <!-- 28 -->
      <g transform="translate(364.125769 210.226478) scale(0.16 -0.16)">
       <defs>
        <path id="DejaVuSans-38" d="M 2034 2216 
Q 1584 2216 1326 1975 
Q 1069 1734 1069 1313 
Q 1069 891 1326 650 
Q 1584 409 2034 409 
Q 2484 409 2743 651 
Q 3003 894 3003 1313 
Q 3003 1734 2745 1975 
Q 2488 2216 2034 2216 
z
M 1403 2484 
Q 997 2584 770 2862 
Q 544 3141 544 3541 
Q 544 4100 942 4425 
Q 1341 4750 2034 4750 
Q 2731 4750 3128 4425 
Q 3525 4100 3525 3541 
Q 3525 3141 3298 2862 
Q 3072 2584 2669 2484 
Q 3125 2378 3379 2068 
Q 3634 1759 3634 1313 
Q 3634 634 3220 271 
Q 2806 -91 2034 -91 
Q 1263 -91 848 271 
Q 434 634 434 1313 
Q 434 1759 690 2068 
Q 947 2378 1403 2484 
z
M 1172 3481 
Q 1172 3119 1398 2916 
Q 1625 2713 2034 2713 
Q 2441 2713 2670 2916 
Q 2900 3119 2900 3481 
Q 2900 3844 2670 4047 
Q 2441 4250 2034 4250 
Q 1625 4250 1398 4047 
Q 1172 3844 1172 3481 
z
" transform="scale(0.015625)"/>
       </defs>
       <use xlink:href="#DejaVuSans-32"/>
       <use xlink:href="#DejaVuSans-38" x="63.623047"/>
      </g>
     </g>
    </g>
    <g id="xtick_10">
     <g id="line2d_19">
      <path d="M 408.828077 191.068978 
L 408.828077 15.824889 
" clip-path="url(#pbf75eaed49)" style="fill: none; stroke: #b0b0b0; stroke-width: 0.8; stroke-linecap: square"/>
     </g>
     <g id="line2d_20">
      <g>
       <use xlink:href="#m32ec9d8bb7" x="408.828077" y="191.068978" style="stroke: #000000; stroke-width: 0.8"/>
      </g>
     </g>
     <g id="text_10">
      <!-- 29 -->
      <g transform="translate(398.648077 210.226478) scale(0.16 -0.16)">
       <defs>
        <path id="DejaVuSans-39" d="M 703 97 
L 703 672 
Q 941 559 1184 500 
Q 1428 441 1663 441 
Q 2288 441 2617 861 
Q 2947 1281 2994 2138 
Q 2813 1869 2534 1725 
Q 2256 1581 1919 1581 
Q 1219 1581 811 2004 
Q 403 2428 403 3163 
Q 403 3881 828 4315 
Q 1253 4750 1959 4750 
Q 2769 4750 3195 4129 
Q 3622 3509 3622 2328 
Q 3622 1225 3098 567 
Q 2575 -91 1691 -91 
Q 1453 -91 1209 -44 
Q 966 3 703 97 
z
M 1959 2075 
Q 2384 2075 2632 2365 
Q 2881 2656 2881 3163 
Q 2881 3666 2632 3958 
Q 2384 4250 1959 4250 
Q 1534 4250 1286 3958 
Q 1038 3666 1038 3163 
Q 1038 2656 1286 2365 
Q 1534 2075 1959 2075 
z
" transform="scale(0.015625)"/>
       </defs>
       <use xlink:href="#DejaVuSans-32"/>
       <use xlink:href="#DejaVuSans-39" x="63.623047"/>
      </g>
     </g>
    </g>
    <g id="xtick_11">
     <g id="line2d_21">
      <path d="M 443.350385 191.068978 
L 443.350385 15.824889 
" clip-path="url(#pbf75eaed49)" style="fill: none; stroke: #b0b0b0; stroke-width: 0.8; stroke-linecap: square"/>
     </g>
     <g id="line2d_22">
      <g>
       <use xlink:href="#m32ec9d8bb7" x="443.350385" y="191.068978" style="stroke: #000000; stroke-width: 0.8"/>
      </g>
     </g>
     <g id="text_11">
      <!-- 30 -->
      <g transform="translate(433.170385 210.226478) scale(0.16 -0.16)">
       <use xlink:href="#DejaVuSans-33"/>
       <use xlink:href="#DejaVuSans-30" x="63.623047"/>
      </g>
     </g>
    </g>
    <g id="xtick_12">
     <g id="line2d_23">
      <path d="M 477.872692 191.068978 
L 477.872692 15.824889 
" clip-path="url(#pbf75eaed49)" style="fill: none; stroke: #b0b0b0; stroke-width: 0.8; stroke-linecap: square"/>
     </g>
     <g id="line2d_24">
      <g>
       <use xlink:href="#m32ec9d8bb7" x="477.872692" y="191.068978" style="stroke: #000000; stroke-width: 0.8"/>
      </g>
     </g>
     <g id="text_12">
      <!-- 31 -->
      <g transform="translate(467.692692 210.226478) scale(0.16 -0.16)">
       <use xlink:href="#DejaVuSans-33"/>
       <use xlink:href="#DejaVuSans-31" x="63.623047"/>
      </g>
     </g>
    </g>
   </g>
   <g id="matplotlib.axis_2">
    <g id="ytick_1">
     <g id="line2d_25">
      <path d="M 63.605 16.906643 
L 512.395 16.906643 
" clip-path="url(#pbf75eaed49)" style="fill: none; stroke: #b0b0b0; stroke-width: 0.8; stroke-linecap: square"/>
     </g>
     <g id="line2d_26">
      <defs>
       <path id="me8bb04a48f" d="M 0 0 
L -3.5 0 
" style="stroke: #000000; stroke-width: 0.8"/>
      </defs>
      <g>
       <use xlink:href="#me8bb04a48f" x="63.605" y="16.906643" style="stroke: #000000; stroke-width: 0.8"/>
      </g>
     </g>
     <g id="text_13">
      <!-- 20 -->
      <g transform="translate(36.245 22.985393) scale(0.16 -0.16)">
       <use xlink:href="#DejaVuSans-32"/>
       <use xlink:href="#DejaVuSans-30" x="63.623047"/>
      </g>
     </g>
    </g>
    <g id="ytick_2">
     <g id="line2d_27">
      <path d="M 63.605 43.950483 
L 512.395 43.950483 
" clip-path="url(#pbf75eaed49)" style="fill: none; stroke: #b0b0b0; stroke-width: 0.8; stroke-linecap: square"/>
     </g>
     <g id="line2d_28">
      <g>
       <use xlink:href="#me8bb04a48f" x="63.605" y="43.950483" style="stroke: #000000; stroke-width: 0.8"/>
      </g>
     </g>
     <g id="text_14">
      <!-- 15 -->
      <g transform="translate(36.245 50.029233) scale(0.16 -0.16)">
       <use xlink:href="#DejaVuSans-31"/>
       <use xlink:href="#DejaVuSans-35" x="63.623047"/>
      </g>
     </g>
    </g>
    <g id="ytick_3">
     <g id="line2d_29">
      <path d="M 63.605 70.994324 
L 512.395 70.994324 
" clip-path="url(#pbf75eaed49)" style="fill: none; stroke: #b0b0b0; stroke-width: 0.8; stroke-linecap: square"/>
     </g>
     <g id="line2d_30">
      <g>
       <use xlink:href="#me8bb04a48f" x="63.605" y="70.994324" style="stroke: #000000; stroke-width: 0.8"/>
      </g>
     </g>
     <g id="text_15">
      <!-- 10 -->
      <g transform="translate(36.245 77.073074) scale(0.16 -0.16)">
       <use xlink:href="#DejaVuSans-31"/>
       <use xlink:href="#DejaVuSans-30" x="63.623047"/>
      </g>
     </g>
    </g>
    <g id="ytick_4">
     <g id="line2d_31">
      <path d="M 63.605 98.038165 
L 512.395 98.038165 
" clip-path="url(#pbf75eaed49)" style="fill: none; stroke: #b0b0b0; stroke-width: 0.8; stroke-linecap: square"/>
     </g>
     <g id="line2d_32">
      <g>
       <use xlink:href="#me8bb04a48f" x="63.605" y="98.038165" style="stroke: #000000; stroke-width: 0.8"/>
      </g>
     </g>
     <g id="text_16">
      <!-- 5 -->
      <g transform="translate(46.425 104.116915) scale(0.16 -0.16)">
       <use xlink:href="#DejaVuSans-35"/>
      </g>
     </g>
    </g>
    <g id="ytick_5">
     <g id="line2d_33">
      <path d="M 63.605 125.082006 
L 512.395 125.082006 
" clip-path="url(#pbf75eaed49)" style="fill: none; stroke: #b0b0b0; stroke-width: 0.8; stroke-linecap: square"/>
     </g>
     <g id="line2d_34">
      <g>
       <use xlink:href="#me8bb04a48f" x="63.605" y="125.082006" style="stroke: #000000; stroke-width: 0.8"/>
      </g>
     </g>
     <g id="text_17">
      <!-- 0 -->
      <g transform="translate(46.425 131.160756) scale(0.16 -0.16)">
       <use xlink:href="#DejaVuSans-30"/>
      </g>
     </g>
    </g>
    <g id="ytick_6">
     <g id="line2d_35">
      <path d="M 63.605 152.125847 
L 512.395 152.125847 
" clip-path="url(#pbf75eaed49)" style="fill: none; stroke: #b0b0b0; stroke-width: 0.8; stroke-linecap: square"/>
     </g>
     <g id="line2d_36">
      <g>
       <use xlink:href="#me8bb04a48f" x="63.605" y="152.125847" style="stroke: #000000; stroke-width: 0.8"/>
      </g>
     </g>
     <g id="text_18">
      <!-- -5 -->
      <g transform="translate(40.6525 158.204597) scale(0.16 -0.16)">
       <defs>
        <path id="DejaVuSans-2d" d="M 313 2009 
L 1997 2009 
L 1997 1497 
L 313 1497 
L 313 2009 
z
" transform="scale(0.015625)"/>
       </defs>
       <use xlink:href="#DejaVuSans-2d"/>
       <use xlink:href="#DejaVuSans-35" x="36.083984"/>
      </g>
     </g>
    </g>
    <g id="ytick_7">
     <g id="line2d_37">
      <path d="M 63.605 179.169688 
L 512.395 179.169688 
" clip-path="url(#pbf75eaed49)" style="fill: none; stroke: #b0b0b0; stroke-width: 0.8; stroke-linecap: square"/>
     </g>
     <g id="line2d_38">
      <g>
       <use xlink:href="#me8bb04a48f" x="63.605" y="179.169688" style="stroke: #000000; stroke-width: 0.8"/>
      </g>
     </g>
     <g id="text_19">
      <!-- -10 -->
      <g transform="translate(30.4725 185.248438) scale(0.16 -0.16)">
       <use xlink:href="#DejaVuSans-2d"/>
       <use xlink:href="#DejaVuSans-31" x="36.083984"/>
       <use xlink:href="#DejaVuSans-30" x="99.707031"/>
      </g>
     </g>
    </g>
    <g id="text_20">
     <!-- Power (kW) -->
     <g transform="translate(23.145 148.956933) rotate(-90) scale(0.16 -0.16)">
      <defs>
       <path id="DejaVuSans-50" d="M 1259 4147 
L 1259 2394 
L 2053 2394 
Q 2494 2394 2734 2622 
Q 2975 2850 2975 3272 
Q 2975 3691 2734 3919 
Q 2494 4147 2053 4147 
L 1259 4147 
z
M 628 4666 
L 2053 4666 
Q 2838 4666 3239 4311 
Q 3641 3956 3641 3272 
Q 3641 2581 3239 2228 
Q 2838 1875 2053 1875 
L 1259 1875 
L 1259 0 
L 628 0 
L 628 4666 
z
" transform="scale(0.015625)"/>
       <path id="DejaVuSans-6f" d="M 1959 3097 
Q 1497 3097 1228 2736 
Q 959 2375 959 1747 
Q 959 1119 1226 758 
Q 1494 397 1959 397 
Q 2419 397 2687 759 
Q 2956 1122 2956 1747 
Q 2956 2369 2687 2733 
Q 2419 3097 1959 3097 
z
M 1959 3584 
Q 2709 3584 3137 3096 
Q 3566 2609 3566 1747 
Q 3566 888 3137 398 
Q 2709 -91 1959 -91 
Q 1206 -91 779 398 
Q 353 888 353 1747 
Q 353 2609 779 3096 
Q 1206 3584 1959 3584 
z
" transform="scale(0.015625)"/>
       <path id="DejaVuSans-77" d="M 269 3500 
L 844 3500 
L 1563 769 
L 2278 3500 
L 2956 3500 
L 3675 769 
L 4391 3500 
L 4966 3500 
L 4050 0 
L 3372 0 
L 2619 2869 
L 1863 0 
L 1184 0 
L 269 3500 
z
" transform="scale(0.015625)"/>
       <path id="DejaVuSans-65" d="M 3597 1894 
L 3597 1613 
L 953 1613 
Q 991 1019 1311 708 
Q 1631 397 2203 397 
Q 2534 397 2845 478 
Q 3156 559 3463 722 
L 3463 178 
Q 3153 47 2828 -22 
Q 2503 -91 2169 -91 
Q 1331 -91 842 396 
Q 353 884 353 1716 
Q 353 2575 817 3079 
Q 1281 3584 2069 3584 
Q 2775 3584 3186 3129 
Q 3597 2675 3597 1894 
z
M 3022 2063 
Q 3016 2534 2758 2815 
Q 2500 3097 2075 3097 
Q 1594 3097 1305 2825 
Q 1016 2553 972 2059 
L 3022 2063 
z
" transform="scale(0.015625)"/>
       <path id="DejaVuSans-72" d="M 2631 2963 
Q 2534 3019 2420 3045 
Q 2306 3072 2169 3072 
Q 1681 3072 1420 2755 
Q 1159 2438 1159 1844 
L 1159 0 
L 581 0 
L 581 3500 
L 1159 3500 
L 1159 2956 
Q 1341 3275 1631 3429 
Q 1922 3584 2338 3584 
Q 2397 3584 2469 3576 
Q 2541 3569 2628 3553 
L 2631 2963 
z
" transform="scale(0.015625)"/>
       <path id="DejaVuSans-20" transform="scale(0.015625)"/>
       <path id="DejaVuSans-28" d="M 1984 4856 
Q 1566 4138 1362 3434 
Q 1159 2731 1159 2009 
Q 1159 1288 1364 580 
Q 1569 -128 1984 -844 
L 1484 -844 
Q 1016 -109 783 600 
Q 550 1309 550 2009 
Q 550 2706 781 3412 
Q 1013 4119 1484 4856 
L 1984 4856 
z
" transform="scale(0.015625)"/>
       <path id="DejaVuSans-6b" d="M 581 4863 
L 1159 4863 
L 1159 1991 
L 2875 3500 
L 3609 3500 
L 1753 1863 
L 3688 0 
L 2938 0 
L 1159 1709 
L 1159 0 
L 581 0 
L 581 4863 
z
" transform="scale(0.015625)"/>
       <path id="DejaVuSans-57" d="M 213 4666 
L 850 4666 
L 1831 722 
L 2809 4666 
L 3519 4666 
L 4500 722 
L 5478 4666 
L 6119 4666 
L 4947 0 
L 4153 0 
L 3169 4050 
L 2175 0 
L 1381 0 
L 213 4666 
z
" transform="scale(0.015625)"/>
       <path id="DejaVuSans-29" d="M 513 4856 
L 1013 4856 
Q 1481 4119 1714 3412 
Q 1947 2706 1947 2009 
Q 1947 1309 1714 600 
Q 1481 -109 1013 -844 
L 513 -844 
Q 928 -128 1133 580 
Q 1338 1288 1338 2009 
Q 1338 2731 1133 3434 
Q 928 4138 513 4856 
z
" transform="scale(0.015625)"/>
      </defs>
      <use xlink:href="#DejaVuSans-50"/>
      <use xlink:href="#DejaVuSans-6f" x="56.677734"/>
      <use xlink:href="#DejaVuSans-77" x="117.859375"/>
      <use xlink:href="#DejaVuSans-65" x="199.646484"/>
      <use xlink:href="#DejaVuSans-72" x="261.169922"/>
      <use xlink:href="#DejaVuSans-20" x="302.283203"/>
      <use xlink:href="#DejaVuSans-28" x="334.070312"/>
      <use xlink:href="#DejaVuSans-6b" x="373.083984"/>
      <use xlink:href="#DejaVuSans-57" x="430.994141"/>
      <use xlink:href="#DejaVuSans-29" x="529.871094"/>
     </g>
    </g>
   </g>
   <g id="patch_39">
    <path d="M 63.605 191.068978 
L 63.605 15.824889 
" style="fill: none; stroke: #000000; stroke-width: 0.8; stroke-linejoin: miter; stroke-linecap: square"/>
   </g>
   <g id="patch_40">
    <path d="M 512.395 191.068978 
L 512.395 15.824889 
" style="fill: none; stroke: #000000; stroke-width: 0.8; stroke-linejoin: miter; stroke-linecap: square"/>
   </g>
   <g id="patch_41">
    <path d="M 63.605 191.068978 
L 512.395 191.068978 
" style="fill: none; stroke: #000000; stroke-width: 0.8; stroke-linejoin: miter; stroke-linecap: square"/>
   </g>
   <g id="patch_42">
    <path d="M 63.605 15.824889 
L 512.395 15.824889 
" style="fill: none; stroke: #000000; stroke-width: 0.8; stroke-linejoin: miter; stroke-linecap: square"/>
   </g>
   <g id="text_21">
    <!-- d) -->
    <g transform="translate(72.235577 35.837331) scale(0.16 -0.16)">
     <defs>
      <path id="DejaVuSans-64" d="M 2906 2969 
L 2906 4863 
L 3481 4863 
L 3481 0 
L 2906 0 
L 2906 525 
Q 2725 213 2448 61 
Q 2172 -91 1784 -91 
Q 1150 -91 751 415 
Q 353 922 353 1747 
Q 353 2572 751 3078 
Q 1150 3584 1784 3584 
Q 2172 3584 2448 3432 
Q 2725 3281 2906 2969 
z
M 947 1747 
Q 947 1113 1208 752 
Q 1469 391 1925 391 
Q 2381 391 2643 752 
Q 2906 1113 2906 1747 
Q 2906 2381 2643 2742 
Q 2381 3103 1925 3103 
Q 1469 3103 1208 2742 
Q 947 2381 947 1747 
z
" transform="scale(0.015625)"/>
     </defs>
     <use xlink:href="#DejaVuSans-64"/>
     <use xlink:href="#DejaVuSans-29" x="63.476562"/>
    </g>
   </g>
  </g>
  <g id="axes_2">
   <g id="patch_43">
    <path d="M 63.605 234.88 
L 512.395 234.88 
L 512.395 191.068978 
L 63.605 191.068978 
z
" style="fill: #ffffff"/>
   </g>
   <g id="patch_44">
    <path d="M 91.222846 223.927244 
L 105.031769 223.927244 
L 105.031769 202.021733 
L 91.222846 202.021733 
z
" clip-path="url(#p8cfcd5ffb5)" style="fill: #008000"/>
   </g>
   <g id="patch_45">
    <path d="M 125.745154 223.927244 
L 139.554077 223.927244 
L 139.554077 223.927244 
L 125.745154 223.927244 
z
" clip-path="url(#p8cfcd5ffb5)" style="fill: #008000"/>
   </g>
   <g id="patch_46">
    <path d="M 160.267462 223.927244 
L 174.076385 223.927244 
L 174.076385 202.021733 
L 160.267462 202.021733 
z
" clip-path="url(#p8cfcd5ffb5)" style="fill: #008000"/>
   </g>
   <g id="patch_47">
    <path d="M 194.789769 223.927244 
L 208.598692 223.927244 
L 208.598692 223.927244 
L 194.789769 223.927244 
z
" clip-path="url(#p8cfcd5ffb5)" style="fill: #008000"/>
   </g>
   <g id="patch_48">
    <path d="M 229.312077 223.927244 
L 243.121 223.927244 
L 243.121 202.021733 
L 229.312077 202.021733 
z
" clip-path="url(#p8cfcd5ffb5)" style="fill: #008000"/>
   </g>
   <g id="patch_49">
    <path d="M 263.834385 223.927244 
L 277.643308 223.927244 
L 277.643308 223.927244 
L 263.834385 223.927244 
z
" clip-path="url(#p8cfcd5ffb5)" style="fill: #008000"/>
   </g>
   <g id="patch_50">
    <path d="M 298.356692 223.927244 
L 312.165615 223.927244 
L 312.165615 223.927244 
L 298.356692 223.927244 
z
" clip-path="url(#p8cfcd5ffb5)" style="fill: #008000"/>
   </g>
   <g id="patch_51">
    <path d="M 332.879 223.927244 
L 346.687923 223.927244 
L 346.687923 223.927244 
L 332.879 223.927244 
z
" clip-path="url(#p8cfcd5ffb5)" style="fill: #008000"/>
   </g>
   <g id="patch_52">
    <path d="M 367.401308 223.927244 
L 381.210231 223.927244 
L 381.210231 223.927244 
L 367.401308 223.927244 
z
" clip-path="url(#p8cfcd5ffb5)" style="fill: #008000"/>
   </g>
   <g id="patch_53">
    <path d="M 401.923615 223.927244 
L 415.732538 223.927244 
L 415.732538 202.021733 
L 401.923615 202.021733 
z
" clip-path="url(#p8cfcd5ffb5)" style="fill: #008000"/>
   </g>
   <g id="patch_54">
    <path d="M 436.445923 223.927244 
L 450.254846 223.927244 
L 450.254846 223.927244 
L 436.445923 223.927244 
z
" clip-path="url(#p8cfcd5ffb5)" style="fill: #008000"/>
   </g>
   <g id="patch_55">
    <path d="M 470.968231 223.927244 
L 484.777154 223.927244 
L 484.777154 223.927244 
L 470.968231 223.927244 
z
" clip-path="url(#p8cfcd5ffb5)" style="fill: #008000"/>
   </g>
   <g id="matplotlib.axis_3">
    <g id="xtick_13">
     <g id="line2d_39">
      <path d="M 98.127308 234.88 
L 98.127308 191.068978 
" clip-path="url(#p8cfcd5ffb5)" style="fill: none; stroke: #b0b0b0; stroke-width: 0.8; stroke-linecap: square"/>
     </g>
     <g id="line2d_40">
      <g>
       <use xlink:href="#m32ec9d8bb7" x="98.127308" y="234.88" style="stroke: #000000; stroke-width: 0.8"/>
      </g>
     </g>
     <g id="text_22">
      <!-- 20 -->
      <g transform="translate(87.947308 254.0375) scale(0.16 -0.16)">
       <use xlink:href="#DejaVuSans-32"/>
       <use xlink:href="#DejaVuSans-30" x="63.623047"/>
      </g>
     </g>
    </g>
    <g id="xtick_14">
     <g id="line2d_41">
      <path d="M 132.649615 234.88 
L 132.649615 191.068978 
" clip-path="url(#p8cfcd5ffb5)" style="fill: none; stroke: #b0b0b0; stroke-width: 0.8; stroke-linecap: square"/>
     </g>
     <g id="line2d_42">
      <g>
       <use xlink:href="#m32ec9d8bb7" x="132.649615" y="234.88" style="stroke: #000000; stroke-width: 0.8"/>
      </g>
     </g>
     <g id="text_23">
      <!-- 21 -->
      <g transform="translate(122.469615 254.0375) scale(0.16 -0.16)">
       <use xlink:href="#DejaVuSans-32"/>
       <use xlink:href="#DejaVuSans-31" x="63.623047"/>
      </g>
     </g>
    </g>
    <g id="xtick_15">
     <g id="line2d_43">
      <path d="M 167.171923 234.88 
L 167.171923 191.068978 
" clip-path="url(#p8cfcd5ffb5)" style="fill: none; stroke: #b0b0b0; stroke-width: 0.8; stroke-linecap: square"/>
     </g>
     <g id="line2d_44">
      <g>
       <use xlink:href="#m32ec9d8bb7" x="167.171923" y="234.88" style="stroke: #000000; stroke-width: 0.8"/>
      </g>
     </g>
     <g id="text_24">
      <!-- 22 -->
      <g transform="translate(156.991923 254.0375) scale(0.16 -0.16)">
       <use xlink:href="#DejaVuSans-32"/>
       <use xlink:href="#DejaVuSans-32" x="63.623047"/>
      </g>
     </g>
    </g>
    <g id="xtick_16">
     <g id="line2d_45">
      <path d="M 201.694231 234.88 
L 201.694231 191.068978 
" clip-path="url(#p8cfcd5ffb5)" style="fill: none; stroke: #b0b0b0; stroke-width: 0.8; stroke-linecap: square"/>
     </g>
     <g id="line2d_46">
      <g>
       <use xlink:href="#m32ec9d8bb7" x="201.694231" y="234.88" style="stroke: #000000; stroke-width: 0.8"/>
      </g>
     </g>
     <g id="text_25">
      <!-- 23 -->
      <g transform="translate(191.514231 254.0375) scale(0.16 -0.16)">
       <use xlink:href="#DejaVuSans-32"/>
       <use xlink:href="#DejaVuSans-33" x="63.623047"/>
      </g>
     </g>
    </g>
    <g id="xtick_17">
     <g id="line2d_47">
      <path d="M 236.216538 234.88 
L 236.216538 191.068978 
" clip-path="url(#p8cfcd5ffb5)" style="fill: none; stroke: #b0b0b0; stroke-width: 0.8; stroke-linecap: square"/>
     </g>
     <g id="line2d_48">
      <g>
       <use xlink:href="#m32ec9d8bb7" x="236.216538" y="234.88" style="stroke: #000000; stroke-width: 0.8"/>
      </g>
     </g>
     <g id="text_26">
      <!-- 24 -->
      <g transform="translate(226.036538 254.0375) scale(0.16 -0.16)">
       <use xlink:href="#DejaVuSans-32"/>
       <use xlink:href="#DejaVuSans-34" x="63.623047"/>
      </g>
     </g>
    </g>
    <g id="xtick_18">
     <g id="line2d_49">
      <path d="M 270.738846 234.88 
L 270.738846 191.068978 
" clip-path="url(#p8cfcd5ffb5)" style="fill: none; stroke: #b0b0b0; stroke-width: 0.8; stroke-linecap: square"/>
     </g>
     <g id="line2d_50">
      <g>
       <use xlink:href="#m32ec9d8bb7" x="270.738846" y="234.88" style="stroke: #000000; stroke-width: 0.8"/>
      </g>
     </g>
     <g id="text_27">
      <!-- 25 -->
      <g transform="translate(260.558846 254.0375) scale(0.16 -0.16)">
       <use xlink:href="#DejaVuSans-32"/>
       <use xlink:href="#DejaVuSans-35" x="63.623047"/>
      </g>
     </g>
    </g>
    <g id="xtick_19">
     <g id="line2d_51">
      <path d="M 305.261154 234.88 
L 305.261154 191.068978 
" clip-path="url(#p8cfcd5ffb5)" style="fill: none; stroke: #b0b0b0; stroke-width: 0.8; stroke-linecap: square"/>
     </g>
     <g id="line2d_52">
      <g>
       <use xlink:href="#m32ec9d8bb7" x="305.261154" y="234.88" style="stroke: #000000; stroke-width: 0.8"/>
      </g>
     </g>
     <g id="text_28">
      <!-- 26 -->
      <g transform="translate(295.081154 254.0375) scale(0.16 -0.16)">
       <use xlink:href="#DejaVuSans-32"/>
       <use xlink:href="#DejaVuSans-36" x="63.623047"/>
      </g>
     </g>
    </g>
    <g id="xtick_20">
     <g id="line2d_53">
      <path d="M 339.783462 234.88 
L 339.783462 191.068978 
" clip-path="url(#p8cfcd5ffb5)" style="fill: none; stroke: #b0b0b0; stroke-width: 0.8; stroke-linecap: square"/>
     </g>
     <g id="line2d_54">
      <g>
       <use xlink:href="#m32ec9d8bb7" x="339.783462" y="234.88" style="stroke: #000000; stroke-width: 0.8"/>
      </g>
     </g>
     <g id="text_29">
      <!-- 27 -->
      <g transform="translate(329.603462 254.0375) scale(0.16 -0.16)">
       <use xlink:href="#DejaVuSans-32"/>
       <use xlink:href="#DejaVuSans-37" x="63.623047"/>
      </g>
     </g>
    </g>
    <g id="xtick_21">
     <g id="line2d_55">
      <path d="M 374.305769 234.88 
L 374.305769 191.068978 
" clip-path="url(#p8cfcd5ffb5)" style="fill: none; stroke: #b0b0b0; stroke-width: 0.8; stroke-linecap: square"/>
     </g>
     <g id="line2d_56">
      <g>
       <use xlink:href="#m32ec9d8bb7" x="374.305769" y="234.88" style="stroke: #000000; stroke-width: 0.8"/>
      </g>
     </g>
     <g id="text_30">
      <!-- 28 -->
      <g transform="translate(364.125769 254.0375) scale(0.16 -0.16)">
       <use xlink:href="#DejaVuSans-32"/>
       <use xlink:href="#DejaVuSans-38" x="63.623047"/>
      </g>
     </g>
    </g>
    <g id="xtick_22">
     <g id="line2d_57">
      <path d="M 408.828077 234.88 
L 408.828077 191.068978 
" clip-path="url(#p8cfcd5ffb5)" style="fill: none; stroke: #b0b0b0; stroke-width: 0.8; stroke-linecap: square"/>
     </g>
     <g id="line2d_58">
      <g>
       <use xlink:href="#m32ec9d8bb7" x="408.828077" y="234.88" style="stroke: #000000; stroke-width: 0.8"/>
      </g>
     </g>
     <g id="text_31">
      <!-- 29 -->
      <g transform="translate(398.648077 254.0375) scale(0.16 -0.16)">
       <use xlink:href="#DejaVuSans-32"/>
       <use xlink:href="#DejaVuSans-39" x="63.623047"/>
      </g>
     </g>
    </g>
    <g id="xtick_23">
     <g id="line2d_59">
      <path d="M 443.350385 234.88 
L 443.350385 191.068978 
" clip-path="url(#p8cfcd5ffb5)" style="fill: none; stroke: #b0b0b0; stroke-width: 0.8; stroke-linecap: square"/>
     </g>
     <g id="line2d_60">
      <g>
       <use xlink:href="#m32ec9d8bb7" x="443.350385" y="234.88" style="stroke: #000000; stroke-width: 0.8"/>
      </g>
     </g>
     <g id="text_32">
      <!-- 30 -->
      <g transform="translate(433.170385 254.0375) scale(0.16 -0.16)">
       <use xlink:href="#DejaVuSans-33"/>
       <use xlink:href="#DejaVuSans-30" x="63.623047"/>
      </g>
     </g>
    </g>
    <g id="xtick_24">
     <g id="line2d_61">
      <path d="M 477.872692 234.88 
L 477.872692 191.068978 
" clip-path="url(#p8cfcd5ffb5)" style="fill: none; stroke: #b0b0b0; stroke-width: 0.8; stroke-linecap: square"/>
     </g>
     <g id="line2d_62">
      <g>
       <use xlink:href="#m32ec9d8bb7" x="477.872692" y="234.88" style="stroke: #000000; stroke-width: 0.8"/>
      </g>
     </g>
     <g id="text_33">
      <!-- 31 -->
      <g transform="translate(467.692692 254.0375) scale(0.16 -0.16)">
       <use xlink:href="#DejaVuSans-33"/>
       <use xlink:href="#DejaVuSans-31" x="63.623047"/>
      </g>
     </g>
    </g>
    <g id="text_34">
     <!-- Period (t) -->
     <g transform="translate(251.1375 273.5225) scale(0.16 -0.16)">
      <defs>
       <path id="DejaVuSans-69" d="M 603 3500 
L 1178 3500 
L 1178 0 
L 603 0 
L 603 3500 
z
M 603 4863 
L 1178 4863 
L 1178 4134 
L 603 4134 
L 603 4863 
z
" transform="scale(0.015625)"/>
       <path id="DejaVuSans-74" d="M 1172 4494 
L 1172 3500 
L 2356 3500 
L 2356 3053 
L 1172 3053 
L 1172 1153 
Q 1172 725 1289 603 
Q 1406 481 1766 481 
L 2356 481 
L 2356 0 
L 1766 0 
Q 1100 0 847 248 
Q 594 497 594 1153 
L 594 3053 
L 172 3053 
L 172 3500 
L 594 3500 
L 594 4494 
L 1172 4494 
z
" transform="scale(0.015625)"/>
      </defs>
      <use xlink:href="#DejaVuSans-50"/>
      <use xlink:href="#DejaVuSans-65" x="56.677734"/>
      <use xlink:href="#DejaVuSans-72" x="118.201172"/>
      <use xlink:href="#DejaVuSans-69" x="159.314453"/>
      <use xlink:href="#DejaVuSans-6f" x="187.097656"/>
      <use xlink:href="#DejaVuSans-64" x="248.279297"/>
      <use xlink:href="#DejaVuSans-20" x="311.755859"/>
      <use xlink:href="#DejaVuSans-28" x="343.542969"/>
      <use xlink:href="#DejaVuSans-74" x="382.556641"/>
      <use xlink:href="#DejaVuSans-29" x="421.765625"/>
     </g>
    </g>
   </g>
   <g id="matplotlib.axis_4">
    <g id="ytick_8">
     <g id="line2d_63">
      <path d="M 63.605 223.927244 
L 512.395 223.927244 
" clip-path="url(#p8cfcd5ffb5)" style="fill: none; stroke: #b0b0b0; stroke-width: 0.8; stroke-linecap: square"/>
     </g>
     <g id="line2d_64">
      <g>
       <use xlink:href="#me8bb04a48f" x="63.605" y="223.927244" style="stroke: #000000; stroke-width: 0.8"/>
      </g>
     </g>
     <g id="text_35">
      <!-- off -->
      <g transform="translate(35.55 230.005994) scale(0.16 -0.16)">
       <defs>
        <path id="DejaVuSans-66" d="M 2375 4863 
L 2375 4384 
L 1825 4384 
Q 1516 4384 1395 4259 
Q 1275 4134 1275 3809 
L 1275 3500 
L 2222 3500 
L 2222 3053 
L 1275 3053 
L 1275 0 
L 697 0 
L 697 3053 
L 147 3053 
L 147 3500 
L 697 3500 
L 697 3744 
Q 697 4328 969 4595 
Q 1241 4863 1831 4863 
L 2375 4863 
z
" transform="scale(0.015625)"/>
       </defs>
       <use xlink:href="#DejaVuSans-6f"/>
       <use xlink:href="#DejaVuSans-66" x="61.181641"/>
       <use xlink:href="#DejaVuSans-66" x="96.386719"/>
      </g>
     </g>
    </g>
    <g id="ytick_9">
     <g id="line2d_65">
      <path d="M 63.605 202.021733 
L 512.395 202.021733 
" clip-path="url(#p8cfcd5ffb5)" style="fill: none; stroke: #b0b0b0; stroke-width: 0.8; stroke-linecap: square"/>
     </g>
     <g id="line2d_66">
      <g>
       <use xlink:href="#me8bb04a48f" x="63.605" y="202.021733" style="stroke: #000000; stroke-width: 0.8"/>
      </g>
     </g>
     <g id="text_36">
      <!-- on -->
      <g transform="translate(36.675 208.100483) scale(0.16 -0.16)">
       <defs>
        <path id="DejaVuSans-6e" d="M 3513 2113 
L 3513 0 
L 2938 0 
L 2938 2094 
Q 2938 2591 2744 2837 
Q 2550 3084 2163 3084 
Q 1697 3084 1428 2787 
Q 1159 2491 1159 1978 
L 1159 0 
L 581 0 
L 581 3500 
L 1159 3500 
L 1159 2956 
Q 1366 3272 1645 3428 
Q 1925 3584 2291 3584 
Q 2894 3584 3203 3211 
Q 3513 2838 3513 2113 
z
" transform="scale(0.015625)"/>
       </defs>
       <use xlink:href="#DejaVuSans-6f"/>
       <use xlink:href="#DejaVuSans-6e" x="61.181641"/>
      </g>
     </g>
    </g>
    <g id="text_37">
     <!-- SAS state -->
     <g transform="translate(28.2225 251.561989) rotate(-90) scale(0.16 -0.16)">
      <defs>
       <path id="DejaVuSans-53" d="M 3425 4513 
L 3425 3897 
Q 3066 4069 2747 4153 
Q 2428 4238 2131 4238 
Q 1616 4238 1336 4038 
Q 1056 3838 1056 3469 
Q 1056 3159 1242 3001 
Q 1428 2844 1947 2747 
L 2328 2669 
Q 3034 2534 3370 2195 
Q 3706 1856 3706 1288 
Q 3706 609 3251 259 
Q 2797 -91 1919 -91 
Q 1588 -91 1214 -16 
Q 841 59 441 206 
L 441 856 
Q 825 641 1194 531 
Q 1563 422 1919 422 
Q 2459 422 2753 634 
Q 3047 847 3047 1241 
Q 3047 1584 2836 1778 
Q 2625 1972 2144 2069 
L 1759 2144 
Q 1053 2284 737 2584 
Q 422 2884 422 3419 
Q 422 4038 858 4394 
Q 1294 4750 2059 4750 
Q 2388 4750 2728 4690 
Q 3069 4631 3425 4513 
z
" transform="scale(0.015625)"/>
       <path id="DejaVuSans-41" d="M 2188 4044 
L 1331 1722 
L 3047 1722 
L 2188 4044 
z
M 1831 4666 
L 2547 4666 
L 4325 0 
L 3669 0 
L 3244 1197 
L 1141 1197 
L 716 0 
L 50 0 
L 1831 4666 
z
" transform="scale(0.015625)"/>
       <path id="DejaVuSans-73" d="M 2834 3397 
L 2834 2853 
Q 2591 2978 2328 3040 
Q 2066 3103 1784 3103 
Q 1356 3103 1142 2972 
Q 928 2841 928 2578 
Q 928 2378 1081 2264 
Q 1234 2150 1697 2047 
L 1894 2003 
Q 2506 1872 2764 1633 
Q 3022 1394 3022 966 
Q 3022 478 2636 193 
Q 2250 -91 1575 -91 
Q 1294 -91 989 -36 
Q 684 19 347 128 
L 347 722 
Q 666 556 975 473 
Q 1284 391 1588 391 
Q 1994 391 2212 530 
Q 2431 669 2431 922 
Q 2431 1156 2273 1281 
Q 2116 1406 1581 1522 
L 1381 1569 
Q 847 1681 609 1914 
Q 372 2147 372 2553 
Q 372 3047 722 3315 
Q 1072 3584 1716 3584 
Q 2034 3584 2315 3537 
Q 2597 3491 2834 3397 
z
" transform="scale(0.015625)"/>
       <path id="DejaVuSans-61" d="M 2194 1759 
Q 1497 1759 1228 1600 
Q 959 1441 959 1056 
Q 959 750 1161 570 
Q 1363 391 1709 391 
Q 2188 391 2477 730 
Q 2766 1069 2766 1631 
L 2766 1759 
L 2194 1759 
z
M 3341 1997 
L 3341 0 
L 2766 0 
L 2766 531 
Q 2569 213 2275 61 
Q 1981 -91 1556 -91 
Q 1019 -91 701 211 
Q 384 513 384 1019 
Q 384 1609 779 1909 
Q 1175 2209 1959 2209 
L 2766 2209 
L 2766 2266 
Q 2766 2663 2505 2880 
Q 2244 3097 1772 3097 
Q 1472 3097 1187 3025 
Q 903 2953 641 2809 
L 641 3341 
Q 956 3463 1253 3523 
Q 1550 3584 1831 3584 
Q 2591 3584 2966 3190 
Q 3341 2797 3341 1997 
z
" transform="scale(0.015625)"/>
      </defs>
      <use xlink:href="#DejaVuSans-53"/>
      <use xlink:href="#DejaVuSans-41" x="65.351562"/>
      <use xlink:href="#DejaVuSans-53" x="133.759766"/>
      <use xlink:href="#DejaVuSans-20" x="197.236328"/>
      <use xlink:href="#DejaVuSans-73" x="229.023438"/>
      <use xlink:href="#DejaVuSans-74" x="281.123047"/>
      <use xlink:href="#DejaVuSans-61" x="320.332031"/>
      <use xlink:href="#DejaVuSans-74" x="381.611328"/>
      <use xlink:href="#DejaVuSans-65" x="420.820312"/>
     </g>
    </g>
   </g>
   <g id="patch_56">
    <path d="M 63.605 234.88 
L 63.605 191.068978 
" style="fill: none; stroke: #000000; stroke-width: 0.8; stroke-linejoin: miter; stroke-linecap: square"/>
   </g>
   <g id="patch_57">
    <path d="M 512.395 234.88 
L 512.395 191.068978 
" style="fill: none; stroke: #000000; stroke-width: 0.8; stroke-linejoin: miter; stroke-linecap: square"/>
   </g>
   <g id="patch_58">
    <path d="M 63.605 234.88 
L 512.395 234.88 
" style="fill: none; stroke: #000000; stroke-width: 0.8; stroke-linejoin: miter; stroke-linecap: square"/>
   </g>
   <g id="patch_59">
    <path d="M 63.605 191.068978 
L 512.395 191.068978 
" style="fill: none; stroke: #000000; stroke-width: 0.8; stroke-linejoin: miter; stroke-linecap: square"/>
   </g>
  </g>
  <g id="axes_3">
   <g id="patch_60">
    <path d="M 98.127308 125.082006 
L 105.031769 125.082006 
L 105.031769 53.381752 
L 98.127308 53.381752 
z
" clip-path="url(#pbf75eaed49)" style="fill: #0000ff"/>
   </g>
   <g id="patch_61">
    <path d="M 132.649615 125.082006 
L 139.554077 125.082006 
L 139.554077 51.018121 
L 132.649615 51.018121 
z
" clip-path="url(#pbf75eaed49)" style="fill: #0000ff"/>
   </g>
   <g id="patch_62">
    <path d="M 167.171923 125.082006 
L 174.076385 125.082006 
L 174.076385 76.094252 
L 167.171923 76.094252 
z
" clip-path="url(#pbf75eaed49)" style="fill: #0000ff"/>
   </g>
   <g id="patch_63">
    <path d="M 201.694231 125.082006 
L 208.598692 125.082006 
L 208.598692 73.423402 
L 201.694231 73.423402 
z
" clip-path="url(#pbf75eaed49)" style="fill: #0000ff"/>
   </g>
   <g id="patch_64">
    <path d="M 236.216538 125.082006 
L 243.121 125.082006 
L 243.121 98.430301 
L 236.216538 98.430301 
z
" clip-path="url(#pbf75eaed49)" style="fill: #0000ff"/>
   </g>
   <g id="patch_65">
    <path d="M 270.738846 125.082006 
L 277.643308 125.082006 
L 277.643308 95.787036 
L 270.738846 95.787036 
z
" clip-path="url(#pbf75eaed49)" style="fill: #0000ff"/>
   </g>
   <g id="patch_66">
    <path d="M 305.261154 125.082006 
L 312.165615 125.082006 
L 312.165615 93.205431 
L 305.261154 93.205431 
z
" clip-path="url(#pbf75eaed49)" style="fill: #0000ff"/>
   </g>
   <g id="patch_67">
    <path d="M 339.783462 125.082006 
L 346.687923 125.082006 
L 346.687923 90.668178 
L 339.783462 90.668178 
z
" clip-path="url(#pbf75eaed49)" style="fill: #0000ff"/>
   </g>
   <g id="patch_68">
    <path d="M 374.305769 125.082006 
L 381.210231 125.082006 
L 381.210231 88.175817 
L 374.305769 88.175817 
z
" clip-path="url(#pbf75eaed49)" style="fill: #0000ff"/>
   </g>
   <g id="patch_69">
    <path d="M 408.828077 125.082006 
L 415.732538 125.082006 
L 415.732538 113.747391 
L 408.828077 113.747391 
z
" clip-path="url(#pbf75eaed49)" style="fill: #0000ff"/>
   </g>
   <g id="patch_70">
    <path d="M 443.350385 125.082006 
L 450.254846 125.082006 
L 450.254846 111.896511 
L 443.350385 111.896511 
z
" clip-path="url(#pbf75eaed49)" style="fill: #0000ff"/>
   </g>
   <g id="patch_71">
    <path d="M 477.872692 125.082006 
L 484.777154 125.082006 
L 484.777154 110.404773 
L 477.872692 110.404773 
z
" clip-path="url(#pbf75eaed49)" style="fill: #0000ff"/>
   </g>
   <g id="matplotlib.axis_5">
    <g id="ytick_10">
     <g id="line2d_67">
      <defs>
       <path id="mf9df375d89" d="M 0 0 
L 3.5 0 
" style="stroke: #000000; stroke-width: 0.8"/>
      </defs>
      <g>
       <use xlink:href="#mf9df375d89" x="512.395" y="16.906643" style="stroke: #000000; stroke-width: 0.8"/>
      </g>
     </g>
     <g id="text_38">
      <!-- 20 -->
      <g transform="translate(519.395 22.985393) scale(0.16 -0.16)">
       <use xlink:href="#DejaVuSans-32"/>
       <use xlink:href="#DejaVuSans-30" x="63.623047"/>
      </g>
     </g>
    </g>
    <g id="ytick_11">
     <g id="line2d_68">
      <g>
       <use xlink:href="#mf9df375d89" x="512.395" y="43.950483" style="stroke: #000000; stroke-width: 0.8"/>
      </g>
     </g>
     <g id="text_39">
      <!-- 15 -->
      <g transform="translate(519.395 50.029233) scale(0.16 -0.16)">
       <use xlink:href="#DejaVuSans-31"/>
       <use xlink:href="#DejaVuSans-35" x="63.623047"/>
      </g>
     </g>
    </g>
    <g id="ytick_12">
     <g id="line2d_69">
      <g>
       <use xlink:href="#mf9df375d89" x="512.395" y="70.994324" style="stroke: #000000; stroke-width: 0.8"/>
      </g>
     </g>
     <g id="text_40">
      <!-- 10 -->
      <g transform="translate(519.395 77.073074) scale(0.16 -0.16)">
       <use xlink:href="#DejaVuSans-31"/>
       <use xlink:href="#DejaVuSans-30" x="63.623047"/>
      </g>
     </g>
    </g>
    <g id="ytick_13">
     <g id="line2d_70">
      <g>
       <use xlink:href="#mf9df375d89" x="512.395" y="98.038165" style="stroke: #000000; stroke-width: 0.8"/>
      </g>
     </g>
     <g id="text_41">
      <!-- 5 -->
      <g transform="translate(519.395 104.116915) scale(0.16 -0.16)">
       <use xlink:href="#DejaVuSans-35"/>
      </g>
     </g>
    </g>
    <g id="ytick_14">
     <g id="line2d_71">
      <g>
       <use xlink:href="#mf9df375d89" x="512.395" y="125.082006" style="stroke: #000000; stroke-width: 0.8"/>
      </g>
     </g>
     <g id="text_42">
      <!-- 0 -->
      <g transform="translate(519.395 131.160756) scale(0.16 -0.16)">
       <use xlink:href="#DejaVuSans-30"/>
      </g>
     </g>
    </g>
    <g id="ytick_15">
     <g id="line2d_72">
      <g>
       <use xlink:href="#mf9df375d89" x="512.395" y="152.125847" style="stroke: #000000; stroke-width: 0.8"/>
      </g>
     </g>
     <g id="text_43">
      <!-- -5 -->
      <g transform="translate(519.395 158.204597) scale(0.16 -0.16)">
       <use xlink:href="#DejaVuSans-2d"/>
       <use xlink:href="#DejaVuSans-35" x="36.083984"/>
      </g>
     </g>
    </g>
    <g id="ytick_16">
     <g id="line2d_73">
      <g>
       <use xlink:href="#mf9df375d89" x="512.395" y="179.169688" style="stroke: #000000; stroke-width: 0.8"/>
      </g>
     </g>
     <g id="text_44">
      <!-- -10 -->
      <g transform="translate(519.395 185.248438) scale(0.16 -0.16)">
       <use xlink:href="#DejaVuSans-2d"/>
       <use xlink:href="#DejaVuSans-31" x="36.083984"/>
       <use xlink:href="#DejaVuSans-30" x="99.707031"/>
      </g>
     </g>
    </g>
    <g id="text_45">
     <!-- Energy (kWh) -->
     <g transform="translate(561.685 157.854433) rotate(-90) scale(0.16 -0.16)">
      <defs>
       <path id="DejaVuSans-45" d="M 628 4666 
L 3578 4666 
L 3578 4134 
L 1259 4134 
L 1259 2753 
L 3481 2753 
L 3481 2222 
L 1259 2222 
L 1259 531 
L 3634 531 
L 3634 0 
L 628 0 
L 628 4666 
z
" transform="scale(0.015625)"/>
       <path id="DejaVuSans-67" d="M 2906 1791 
Q 2906 2416 2648 2759 
Q 2391 3103 1925 3103 
Q 1463 3103 1205 2759 
Q 947 2416 947 1791 
Q 947 1169 1205 825 
Q 1463 481 1925 481 
Q 2391 481 2648 825 
Q 2906 1169 2906 1791 
z
M 3481 434 
Q 3481 -459 3084 -895 
Q 2688 -1331 1869 -1331 
Q 1566 -1331 1297 -1286 
Q 1028 -1241 775 -1147 
L 775 -588 
Q 1028 -725 1275 -790 
Q 1522 -856 1778 -856 
Q 2344 -856 2625 -561 
Q 2906 -266 2906 331 
L 2906 616 
Q 2728 306 2450 153 
Q 2172 0 1784 0 
Q 1141 0 747 490 
Q 353 981 353 1791 
Q 353 2603 747 3093 
Q 1141 3584 1784 3584 
Q 2172 3584 2450 3431 
Q 2728 3278 2906 2969 
L 2906 3500 
L 3481 3500 
L 3481 434 
z
" transform="scale(0.015625)"/>
       <path id="DejaVuSans-79" d="M 2059 -325 
Q 1816 -950 1584 -1140 
Q 1353 -1331 966 -1331 
L 506 -1331 
L 506 -850 
L 844 -850 
Q 1081 -850 1212 -737 
Q 1344 -625 1503 -206 
L 1606 56 
L 191 3500 
L 800 3500 
L 1894 763 
L 2988 3500 
L 3597 3500 
L 2059 -325 
z
" transform="scale(0.015625)"/>
       <path id="DejaVuSans-68" d="M 3513 2113 
L 3513 0 
L 2938 0 
L 2938 2094 
Q 2938 2591 2744 2837 
Q 2550 3084 2163 3084 
Q 1697 3084 1428 2787 
Q 1159 2491 1159 1978 
L 1159 0 
L 581 0 
L 581 4863 
L 1159 4863 
L 1159 2956 
Q 1366 3272 1645 3428 
Q 1925 3584 2291 3584 
Q 2894 3584 3203 3211 
Q 3513 2838 3513 2113 
z
" transform="scale(0.015625)"/>
      </defs>
      <use xlink:href="#DejaVuSans-45"/>
      <use xlink:href="#DejaVuSans-6e" x="63.183594"/>
      <use xlink:href="#DejaVuSans-65" x="126.5625"/>
      <use xlink:href="#DejaVuSans-72" x="188.085938"/>
      <use xlink:href="#DejaVuSans-67" x="227.449219"/>
      <use xlink:href="#DejaVuSans-79" x="290.925781"/>
      <use xlink:href="#DejaVuSans-20" x="350.105469"/>
      <use xlink:href="#DejaVuSans-28" x="381.892578"/>
      <use xlink:href="#DejaVuSans-6b" x="420.90625"/>
      <use xlink:href="#DejaVuSans-57" x="478.816406"/>
      <use xlink:href="#DejaVuSans-68" x="577.693359"/>
      <use xlink:href="#DejaVuSans-29" x="641.072266"/>
     </g>
    </g>
   </g>
   <g id="patch_72">
    <path d="M 63.605 191.068978 
L 63.605 15.824889 
" style="fill: none; stroke: #000000; stroke-width: 0.8; stroke-linejoin: miter; stroke-linecap: square"/>
   </g>
   <g id="patch_73">
    <path d="M 512.395 191.068978 
L 512.395 15.824889 
" style="fill: none; stroke: #000000; stroke-width: 0.8; stroke-linejoin: miter; stroke-linecap: square"/>
   </g>
   <g id="patch_74">
    <path d="M 63.605 191.068978 
L 512.395 191.068978 
" style="fill: none; stroke: #000000; stroke-width: 0.8; stroke-linejoin: miter; stroke-linecap: square"/>
   </g>
   <g id="patch_75">
    <path d="M 63.605 15.824889 
L 512.395 15.824889 
" style="fill: none; stroke: #000000; stroke-width: 0.8; stroke-linejoin: miter; stroke-linecap: square"/>
   </g>
  </g>
 </g>
 <defs>
  <clipPath id="pbf75eaed49">
   <rect x="63.605" y="15.824889" width="448.79" height="175.244089"/>
  </clipPath>
  <clipPath id="p8cfcd5ffb5">
   <rect x="63.605" y="191.068978" width="448.79" height="43.811022"/>
  </clipPath>
 </defs>
</svg>
